# xmcd CD database file
#
# Track frame offsets:
#	150
#	52315
#	106653
#	143893
#
# Disc length: 2674 seconds
#
# Revision: 0
# Processed by: cddbd v1.5.2PL0 Copyright (c) Steve Scherf et al.
# Submitted via: CDex 1.70beta2
#
DISCID=340a7004
DTITLE=Johnny Răducanu - Chamber Jazz Music
DYEAR=2008
DGENRE=Jazz
TTITLE0=Rapsodia Carpatina (Brass 5+2, recorded 1974)
TTITLE1=Oltul povestind (Jazz Folk Septet, recorded 1974)
TTITLE2=Parafraza pe tema "Jocul Ţambalelor" (recorded 1978)
TTITLE3=Expresie şi ritm (recorded 1978)
EXTD=YEAR: 2008
EXTT0=
EXTT1=
EXTT2=
EXTT3=
PLAYORDER=
